<?xml version="1.0" encoding="iso-8859-1"?>
<!-- Generator: Adobe Illustrator 17.0.0, SVG Export Plug-In . SVG Version: 6.00 Build 0)  -->
<!DOCTYPE svg PUBLIC "-//W3C//DTD SVG 1.1//EN" "http://www.w3.org/Graphics/SVG/1.1/DTD/svg11.dtd">
<svg version="1.1" id="Layer_1" xmlns="http://www.w3.org/2000/svg" xmlns:xlink="http://www.w3.org/1999/xlink" x="0px" y="0px"
	 width="167.424px" height="217.303px" viewBox="0 0 167.424 217.303" style="enable-background:new 0 0 167.424 217.303;"
	 xml:space="preserve">
<path style="fill:#FFFFFF;" d="M85.518,7.246c-41.7-0.587-74.626,31.792-74.713,72.449c-0.086,40.644,32.752,73.301,74.395,72.821
	c39.635-0.457,71.306-32.81,71.415-72.331C156.912,40.663,125.287,7.806,85.518,7.246"/>
<g>
	<path style="fill:#FFFFFF;" d="M167.39,77.987c0.24,13.627-3.265,25.349-7.831,36.804c-8.173,20.505-20.097,38.798-33.521,56.178
		c-12.447,16.114-26.278,30.984-40.779,45.254c-1.431,1.408-2.234,1.476-3.722-0.002c-17.897-17.768-34.735-36.446-49.2-57.155
		C21.513,143.569,12.21,127.251,5.749,109.39c-6.682-18.473-8.056-37.069-1.359-55.77C11.88,32.701,25.953,17.313,46.027,8.17
		c31.127-14.177,61.258-11.397,89.261,8.329c16.572,11.673,26.766,27.968,30.87,47.897C167.151,69.22,167.548,74.144,167.39,77.987z
		"/>
</g>
<g>
	<path style="fill:none;stroke:#212121;stroke-width:6;stroke-miterlimit:10;" d="M164.936,79.836
		c0.234,13.248-3.174,24.642-7.613,35.778c-7.946,19.934-19.537,37.717-32.587,54.612c-12.1,15.666-25.546,30.121-39.643,43.993
		c-1.391,1.369-2.172,1.435-3.618-0.002c-17.398-17.273-33.768-35.431-47.83-55.562c-10.523-15.064-19.566-30.927-25.847-48.291
		C1.301,92.406-0.034,74.328,6.476,56.148c7.282-20.336,20.963-35.295,40.477-44.183c30.26-13.782,59.551-11.079,86.775,8.097
		c16.11,11.348,26.021,27.189,30.01,46.563C164.703,71.314,165.089,76.1,164.936,79.836z"/>
</g>
<path d="M101.63,78.227c-0.72,1.472-1.396,2.84-2.06,4.213c-1.216,2.514-2.415,5.037-3.648,7.542
	c-0.234,0.475-0.277,0.855-0.053,1.363c3.24,7.337,6.456,14.685,9.676,22.032c0.228,0.521,0.446,1.046,0.709,1.663
	c-0.326,0.016-0.559,0.038-0.792,0.038c-7.012,0.002-14.024-0.006-21.035,0.014c-0.577,0.002-0.855-0.193-1.097-0.708
	c-3.082-6.582-6.191-13.152-9.286-19.729c-2.388-5.073-4.765-10.151-7.148-15.227c-0.037-0.078-0.086-0.151-0.194-0.337
	c-0.494,1.093-0.955,2.104-1.407,3.118c-3.378,7.572-6.85,15.1-10.919,22.333c-1.98,3.52-4.124,6.941-6.715,10.051
	c-1.925,2.311-4.064,4.397-6.732,5.867c-3.619,1.994-7.47,2.313-11.415,1.384c-2.234-0.526-4.429-1.255-6.588-2.039
	c-0.948-0.344-1.763-1.056-2.695-1.637c0.938-1.536,1.788-2.931,2.64-4.324c2.475-4.047,4.961-8.087,7.413-12.147
	c0.287-0.475,0.581-0.635,1.115-0.561c1.47,0.202,2.948,0.353,4.419,0.545c2.188,0.285,4.222-0.327,6.221-1.08
	c4.071-1.534,7.176-4.348,9.87-7.649c3.31-4.056,5.983-8.514,8.176-13.267c1.198-2.596,2.456-5.163,3.711-7.732
	c0.224-0.458,0.243-0.833,0.022-1.305c-2.851-6.103-5.683-12.215-8.517-18.326c-2.061-4.443-4.117-8.888-6.173-13.333
	c-0.018-0.038-0.013-0.086-0.034-0.232c6.037-3.087,12.103-6.189,18.267-9.34c8.312,17.935,16.608,35.836,24.96,53.86
	c0.259-0.482,0.484-0.87,0.681-1.271c1.687-3.419,3.378-6.836,5.037-10.268c0.132-0.273,0.148-0.706,0.028-0.982
	c-3.024-6.9-6.075-13.788-9.119-20.679c-1.431-3.241-2.856-6.485-4.334-9.84c5.797-2.877,11.582-5.748,17.471-8.67
	c12.614,27.69,25.209,55.337,37.854,83.095c-0.946,0-1.779,0.005-2.612-0.001c-6.123-0.041-12.247-0.091-18.37-0.117
	c-0.494-0.002-0.739-0.159-0.944-0.61c-3.102-6.818-6.222-13.627-9.342-20.437c-2.279-4.976-4.563-9.949-6.846-14.923
	C101.79,78.496,101.742,78.424,101.63,78.227z"/>
</svg>
